<?xml version="1.0" standalone="no"?>
<!DOCTYPE svg PUBLIC "-//W3C//DTD SVG 20010904//EN"
 "http://www.w3.org/TR/2001/REC-SVG-20010904/DTD/svg10.dtd">
<svg version="1.0" xmlns="http://www.w3.org/2000/svg"
 width="439.000000pt" height="372.000000pt" viewBox="0 0 439.000000 372.000000"
 preserveAspectRatio="xMidYMid meet">
<metadata>
Created by potrace 1.12, written by Peter Selinger 2001-2015
</metadata>
<g transform="translate(0.000000,372.000000) scale(0.100000,-0.100000)"
fill="#000000" stroke="none">
<path d="M2040 2876 c-19 -13 -124 -116 -232 -229 -171 -178 -198 -210 -198
-237 0 -17 4 -40 10 -50 5 -10 134 -111 285 -226 l276 -208 66 67 67 66 -25
20 c-13 10 -105 86 -204 168 -144 119 -181 155 -183 177 -3 23 11 43 84 119
97 101 125 121 158 113 12 -3 114 -78 225 -166 112 -88 206 -160 210 -160 3 0
36 30 73 67 l67 66 -262 210 c-144 115 -272 213 -285 218 -42 16 -96 10 -132
-15z"/>
<path d="M2057 2482 l-77 -77 146 -105 c143 -102 284 -222 284 -242 0 -5 -45
-61 -101 -124 -66 -76 -107 -114 -121 -114 -11 0 -122 75 -246 167 l-226 166
-63 -69 c-34 -38 -61 -72 -60 -76 1 -4 123 -97 270 -208 253 -189 270 -200
312 -200 24 0 56 5 72 10 38 15 411 386 429 428 28 64 7 89 -271 309 -137 109
-255 202 -261 205 -6 4 -45 -28 -87 -70z"/>
<path d="M658 1371 c-27 -24 -33 -36 -33 -69 0 -64 17 -76 151 -111 48 -13 62
-36 38 -62 -29 -33 -124 -20 -124 16 0 10 -11 15 -35 15 -29 0 -35 -4 -35 -21
0 -35 51 -76 104 -84 96 -15 166 30 166 106 0 47 -24 74 -77 88 -129 33 -123
31 -123 57 0 46 86 56 113 13 8 -12 23 -19 44 -19 36 0 39 6 22 43 -17 37 -60
57 -123 57 -47 0 -61 -4 -88 -29z"/>
<path d="M1971 1382 c-60 -30 -76 -63 -76 -152 0 -85 12 -112 69 -154 38 -29
134 -29 172 0 50 37 66 68 71 135 8 116 -52 189 -157 189 -25 0 -60 -8 -79
-18z m143 -73 c20 -23 26 -42 26 -75 0 -109 -84 -162 -151 -95 -24 25 -29 37
-29 81 0 52 19 104 42 113 7 3 29 6 50 6 29 1 42 -5 62 -30z"/>
<path d="M941 1261 c4 -113 7 -133 25 -158 46 -62 160 -69 216 -13 l28 28 0
136 0 136 -35 0 -35 0 0 -123 c0 -136 -8 -157 -62 -157 -49 0 -58 25 -58 158
l0 122 -41 0 -41 0 3 -129z"/>
<path d="M1280 1225 l0 -165 30 0 30 0 1 63 c0 34 4 84 7 110 l7 49 64 -111
c61 -107 65 -111 97 -111 l34 0 0 165 0 165 -30 0 -29 0 -3 -112 -3 -113 -65
113 c-64 112 -64 112 -102 112 l-38 0 0 -165z"/>
<path d="M1620 1225 l0 -165 35 0 35 0 0 70 0 70 75 0 75 0 0 30 0 30 -75 0
-75 0 0 40 0 40 85 0 c84 0 85 0 85 25 l0 25 -120 0 -120 0 0 -165z"/>
<path d="M2261 1261 c4 -113 7 -133 25 -158 46 -62 160 -69 216 -13 l28 28 0
136 0 136 -35 0 -35 0 0 -123 c0 -136 -8 -157 -62 -157 -49 0 -58 25 -58 158
l0 122 -41 0 -41 0 3 -129z"/>
<path d="M2600 1225 l0 -165 30 0 30 0 1 63 c0 34 4 84 7 110 l7 49 64 -111
c61 -107 65 -111 97 -111 l34 0 0 165 0 165 -30 0 -29 0 -3 -112 -3 -113 -65
113 c-64 112 -64 112 -102 112 l-38 0 0 -165z"/>
<path d="M2940 1224 l0 -166 99 4 c90 3 102 5 127 28 54 50 70 149 38 230 -23
58 -53 70 -169 70 l-95 0 0 -166z m187 90 c23 -23 25 -31 21 -89 -5 -84 -23
-105 -90 -105 l-48 0 0 110 0 110 45 0 c36 0 52 -6 72 -26z"/>
<path d="M3280 1225 l0 -165 125 0 125 0 0 30 0 30 -96 0 -95 0 3 43 3 42 83
3 83 3 -3 27 c-3 27 -4 27 -86 30 l-83 3 3 32 3 32 88 3 c85 3 87 3 87 27 l0
25 -120 0 -120 0 0 -165z"/>
<path d="M3590 1225 l0 -165 30 0 30 0 0 65 0 65 49 0 c73 0 81 -5 81 -55 0
-66 6 -75 53 -75 32 0 38 3 29 12 -7 7 -12 34 -12 62 0 31 -6 56 -16 67 -15
17 -15 20 5 45 23 30 27 64 9 97 -21 41 -39 46 -150 47 l-108 0 0 -165z"/>
</g>
</svg>
